<svg xmlns="http://www.w3.org/2000/svg" xmlns:xlink="http://www.w3.org/1999/xlink" viewBox="0 0 201.5 201.5" fill="#fff" fill-rule="evenodd" stroke="#000" stroke-linecap="round" stroke-linejoin="round"><use xlink:href="#A" x=".75" y=".75"/><symbol id="A" overflow="visible"><g stroke="none"><rect fill="#a065ff" height="200" rx="5" width="200"/><rect height="9.987" rx="2" width="42.481" transform="matrix(-.819152 .573576 -.573576 -.819152 84.192715 38.90918)"/><rect height="9.288" rx="5" width="31.132" transform="matrix(0 -1 1 0 61.188966 74.039507)"/><rect height="9.286" rx="2" width="26.271" transform="matrix(-.819152 -.573576 .573576 -.819152 94.211388 53.395784)"/><rect height="10.028" rx="2" width="29.652" transform="matrix(-.819152 .573576 -.573576 -.819152 123.445562 38.662883)"/><rect height="10.028" rx="2" width="38.523" transform="matrix(0 1 -1 0 103.660196 50.694996)"/><rect height="10.186" rx="2" width="43.63" transform="matrix(-.819152 -.573576 .573576 -.819152 147.31243 63.369252)"/><rect height="8.967" rx="2" width="28.03" transform="matrix(0 -1 1 0 44.447984 81.905996)"/><rect height="9.594" rx="2" width="24.162" transform="matrix(-.819152 .573576 -.573576 -.819152 52.079389 80.169691)"/><rect height="9.594" rx="2" width="31.686" transform="matrix(0 1 -1 0 37.416752 85.562119)"/><rect height="10.112" rx="5" width="27.202" transform="matrix(-.866025 .5 -.5 -.866025 56.722959 97.711299)"/><rect height="10.366" rx="5" width="30.357" transform="matrix(.766044 .642788 -.642788 .766044 32.048343 110.526146)"/><rect height="9.288" rx="5" width="27.892" transform="matrix(-.866025 .5 -.5 -.866025 72.914534 125.292268)"/><rect height="9.75" rx="2" width="22.72" transform="matrix(0 1 -1 0 53.415321 130.479942)"/><rect height="9.379" rx="2" width="45.688" transform="matrix(.866025 .5 -.5 .866025 48.127167 144.046972)"/><rect height="9.288" rx="5" width="26.51" transform="matrix(-.866025 .5 -.5 -.866025 89.976434 150.885116)"/><rect height="9.825" rx="2" width="21.762" transform="matrix(.866025 -.5 .5 .866025 77.142161 166.420988)"/><rect height="9.594" rx="2" width="24.162" transform="matrix(-.819152 -.573576 .573576 -.819152 66.192702 94.093104)"/><rect height="10.112" rx="5" width="28.421" transform="matrix(0 -1 1 0 77.426558 83.124702)"/><rect height="9.594" rx="2" width="24.162" transform="matrix(.866025 -.5 .5 .866025 60.727515 85.456209)"/><rect height="10.112" rx="5" width="28.421" transform="matrix(-.819152 .573576 -.573576 -.819152 72.746909 106.032769)"/><rect height="9.75" rx="2" width="16.85" transform="matrix(0 -1 1 0 60.727504 105.061431)"/><rect height="10.223" rx="2" width="20.396" transform="matrix(-.866025 -.5 .5 -.866025 79.958006 118.877614)"/><rect height="8.531" rx="2" width="22.833" transform="matrix(0 -1 1 0 76.570697 131.872986)"/><rect height="9.893" rx="5" width="28.54" transform="matrix(-.866025 .5 -.5 -.866025 89.172088 134.347226)"/><rect height="9.291" rx="2" width="21.33" transform="matrix(.866025 -.5 .5 .866025 78.16976 129.883866)"/><rect height="9.75" rx="2" width="56.672" transform="matrix(0 1 -1 0 103.38225 105.668258)"/><rect height="9.624" rx="5" width="23.646" transform="matrix(-.819152 -.573576 .573576 -.819152 99.792296 113.32275)"/><rect height="9.341" rx="2" width="22.781" transform="matrix(.819152 .573576 -.573576 .819152 101.046995 153.809744)"/><rect height="9.216" rx="2" width="46.08" transform="matrix(.866025 -.5 .5 .866025 108.932053 166.600277)"/><rect height="10.272" rx="2" width="17.716" x="97.853" y="131.873"/><rect height="10.272" rx="2" width="19.042" transform="matrix(.866025 .5 -.5 .866025 97.859878 80.024561)"/><rect height="9.053" rx="2" width="25.593" transform="matrix(0 -1 1 0 143.599584 152.591006)"/><rect height="9.053" rx="2" width="26.812" transform="matrix(-.766044 .642788 -.642788 -.766044 169.95746 118.089761)"/><rect height="9.75" rx="2" width="32.905" transform="matrix(0 1 -1 0 169.192433 86.780826)"/><rect height="9.224" rx="2" width="28.155" transform="matrix(.766044 .642788 -.642788 .766044 148.432294 70.053064)"/><rect height="9.75" rx="2" width="24.374" transform="matrix(0 1 -1 0 152.130534 53.875735)"/><rect height="10.272" rx="2" width="20.718" x="124.1" y="61.188"/><rect height="10.272" rx="2" width="14.355" transform="matrix(.819152 .573576 -.573576 .819152 149.805223 107.20383)"/><ellipse cx="114.838" cy="95.312" rx="7.8" ry="7.312"/><ellipse cx="118.494" cy="136.748" rx="7.8" ry="7.312"/><ellipse cx="119.713" cy="66.063" rx="7.8" ry="7.312"/><ellipse cx="142.869" cy="108.717" rx="7.8" ry="7.312"/></g></symbol></svg>