<?xml version="1.0" encoding="UTF-8"?>
<svg version="1.1" xmlns="http://www.w3.org/2000/svg" width="512" height="512">
<path d="M0 0 C2.64200737 3.14452174 2.47999012 6.26190714 2.47851658 10.18300915 C2.48050763 11.34895302 2.48249868 12.51489689 2.48455006 13.7161724 C2.48163722 15.00311966 2.47872438 16.29006691 2.47572327 17.61601257 C2.47615912 18.99216046 2.47703428 20.36830827 2.47831243 21.74445564 C2.48055464 25.53441222 2.47653983 29.32434069 2.47153437 33.11429369 C2.46722615 37.1981237 2.46867656 41.28195205 2.46943665 45.36578369 C2.46996164 52.44409754 2.46681735 59.52240219 2.46119881 66.60071373 C2.45308055 76.83483319 2.45046825 87.06894819 2.44921082 97.30307052 C2.44702081 113.90623248 2.44036211 130.50938953 2.4309082 147.11254883 C2.42173276 163.24340795 2.41465257 179.37426575 2.41040039 195.50512695 C2.41000631 196.99594899 2.41000631 196.99594899 2.40960426 198.51688864 C2.40829925 203.50277246 2.40703553 208.48865628 2.40579236 213.47454011 C2.39542134 254.85412391 2.37780442 296.2337023 2.35546875 337.61328125 C5.65454293 336.69916207 8.95051161 335.77427879 12.24609375 334.84765625 C13.62595459 334.46552979 13.62595459 334.46552979 15.03369141 334.07568359 C22.67075061 331.91957453 29.95831623 329.1769272 37.27734375 326.12890625 C44.52994939 323.26884815 51.68213154 321.62979597 59.35546875 323.61328125 C65.08161777 326.53037603 68.32527538 330.52270115 70.35546875 336.61328125 C70.45113232 338.21114654 70.49037142 339.81268955 70.49591064 341.41340637 C70.50162079 342.40172958 70.50733093 343.3900528 70.51321411 344.4083252 C70.51433197 345.49150024 70.51544983 346.57467529 70.51660156 347.69067383 C70.52156647 348.83239548 70.52653137 349.97411713 70.53164673 351.1504364 C70.54627964 354.93623451 70.55307222 358.72199073 70.55859375 362.5078125 C70.56434422 365.13474021 70.57010196 367.7616679 70.5758667 370.38859558 C70.58543734 375.19590395 70.59133458 380.00320327 70.59436345 384.81051999 C70.59884252 391.88024744 70.61638446 398.94978139 70.64536405 406.01945001 C70.6696093 412.14743023 70.67730894 418.27533072 70.679039 424.40335655 C70.68206784 427.00807435 70.6901041 429.61279128 70.70322418 432.2174778 C70.72026714 435.86103623 70.71840838 439.50412302 70.71191406 443.14770508 C70.72112885 444.22480743 70.73034363 445.30190979 70.73983765 446.41165161 C70.70388977 452.84570421 70.1831609 457.5478059 65.63671875 462.4765625 C65.04890625 462.95480469 64.46109375 463.43304688 63.85546875 463.92578125 C63.26765625 464.41691406 62.67984375 464.90804688 62.07421875 465.4140625 C58.21074435 468.10971396 54.1656685 467.75541158 49.66292095 467.74470901 C48.86772137 467.74676165 48.07252178 467.74881428 47.25322524 467.75092912 C44.56615565 467.75662144 41.87913696 467.75513913 39.19206238 467.75372314 C37.25509259 467.7563055 35.31812334 467.75931829 33.38115484 467.76272655 C28.04077421 467.77081498 22.70040702 467.77258714 17.360021 467.77332401 C11.60734531 467.77517136 5.85467665 467.78271704 0.102005 467.78945923 C-12.48459471 467.80305586 -25.07119126 467.80906925 -37.6577971 467.81346989 C-45.51222377 467.8162299 -53.36664922 467.82046679 -61.22107506 467.82497406 C-82.95445726 467.83716814 -104.68783813 467.84750279 -126.42122364 467.85084915 C-127.82694339 467.85107079 -129.23266314 467.85129257 -130.63838289 467.8515145 C-132.04752279 467.85173514 -133.45666269 467.85195563 -134.86580259 467.85217595 C-137.692843 467.85261851 -140.51988341 467.85306562 -143.34692383 467.85351562 C-144.04786668 467.85362502 -144.74880953 467.85373441 -145.47099308 467.85384711 C-168.20487038 467.85747866 -190.93871581 467.87340223 -213.67258091 467.89670599 C-237.70056338 467.92129134 -261.72852685 467.93501465 -285.75652236 467.93621707 C-298.85762029 467.93713501 -311.95867649 467.94291725 -325.05976295 467.96103668 C-336.21381214 467.97640858 -347.3678067 467.98157536 -358.52186445 467.97329858 C-364.21569398 467.96938183 -369.90941342 467.97037157 -375.60322952 467.98435593 C-380.81242892 467.99703338 -386.0214348 467.99595175 -391.2306337 467.98376521 C-393.11825789 467.9817975 -395.0058955 467.98493582 -396.89350078 467.99360958 C-399.45405754 468.00463357 -402.01392303 467.99726281 -404.57446003 467.98521805 C-405.31188276 467.99281324 -406.0493055 468.00040843 -406.80907437 468.00823379 C-412.33591553 467.95188731 -416.41728442 466.6677647 -420.5078125 462.89453125 C-420.98605469 462.30671875 -421.46429688 461.71890625 -421.95703125 461.11328125 C-422.44816406 460.52546875 -422.93929688 459.93765625 -423.4453125 459.33203125 C-425.61052725 456.22879187 -425.77344388 453.48820717 -425.79170227 449.82661438 C-425.79885757 448.84118149 -425.80601288 447.8557486 -425.81338501 446.8404541 C-425.81607391 445.76042114 -425.81876282 444.68038818 -425.8215332 443.56762695 C-425.8281044 442.42911789 -425.8346756 441.29060883 -425.84144592 440.11759949 C-425.8611924 436.34141985 -425.87284495 432.56528002 -425.8828125 428.7890625 C-425.88688803 427.49995657 -425.89096355 426.21085064 -425.89516258 424.88268089 C-425.91387747 418.76270142 -425.9284413 412.64274191 -425.93677455 406.52273971 C-425.94653757 399.46995476 -425.97283356 392.41748444 -426.01327544 385.36481029 C-426.04714338 379.24751263 -426.05892531 373.13034662 -426.06297874 367.01296043 C-426.06784897 364.41546687 -426.07947524 361.81797677 -426.09801674 359.22054482 C-426.12237382 355.58207839 -426.12144872 351.94443126 -426.11450195 348.3059082 C-426.12731201 347.2359964 -426.14012207 346.16608459 -426.15332031 345.06375122 C-426.10016267 337.41194167 -424.7809206 331.7496706 -419.26953125 326.23828125 C-412.91095846 322.30202191 -407.81130108 322.15145005 -400.64453125 323.61328125 C-394.15771907 325.46665616 -387.84436046 327.76335251 -381.546875 330.171875 C-380.86318848 330.43266846 -380.17950195 330.69346191 -379.47509766 330.9621582 C-377.57585544 331.69258295 -375.68224763 332.43761026 -373.7890625 333.18359375 C-370.37578605 334.44475707 -366.91818419 335.33460097 -363.38549805 336.20263672 C-362.30914597 336.46817352 -361.23279388 336.73371033 -360.12382507 337.0072937 C-359.30565811 337.20726959 -358.48749115 337.40724548 -357.64453125 337.61328125 C-357.64567041 336.91056196 -357.64680957 336.20784266 -357.64798325 335.48382884 C-357.71508349 293.8565355 -357.76657373 252.22924842 -357.79772724 210.60191189 C-357.80147946 205.60627125 -357.80536242 200.61063071 -357.80932617 195.61499023 C-357.8101131 194.62042707 -357.81090003 193.6258639 -357.81171081 192.60116246 C-357.82477304 176.48670608 -357.84843137 160.37228173 -357.87598964 144.25784437 C-357.90402113 127.72913084 -357.92070273 111.20043412 -357.92679673 94.6716978 C-357.93091786 84.46845299 -357.94394501 74.26529872 -357.96828065 64.06208178 C-357.98410999 57.07012696 -357.98893798 50.0782191 -357.98503538 43.08624766 C-357.98310946 39.04920989 -357.98611006 35.01233058 -358.00214767 30.97532082 C-358.0167174 27.28091381 -358.01750284 23.58677222 -358.00722793 19.89235314 C-358.00535476 17.91966435 -358.01831978 15.9469788 -358.03177518 13.97433501 C-358.02580203 12.80440905 -358.01982889 11.63448308 -358.01367474 10.4291048 C-358.0148139 9.41942845 -358.01595306 8.40975209 -358.01712674 7.36947948 C-357.48410089 3.42653081 -355.80881433 0.78036983 -353.0234375 -2.01171875 C-292.63488954 -47.72520022 -156.07118857 -31.76134724 0 0 Z " fill="#283E72" transform="translate(433.64453125,36.38671875)"/>
<path d="M0 0 C1.01876221 0.39119019 1.01876221 0.39119019 2.05810547 0.7902832 C3.94154578 1.51957148 5.81867495 2.26509951 7.6953125 3.01171875 C18.42518367 6.8347006 28.84081219 7.99683809 40.1875 7.94140625 C41.20763687 7.93876266 41.20763687 7.93876266 42.24838257 7.93606567 C53.26009227 7.87258597 62.76495111 6.65960283 72.9375 2.44140625 C74.42128969 1.84489618 75.90569073 1.24990505 77.390625 0.65625 C78.52745728 0.20113037 78.52745728 0.20113037 79.68725586 -0.26318359 C93.94667864 -5.93805152 106.72591401 -7.80700784 122.0625 -7.93359375 C123.31321289 -7.94769287 124.56392578 -7.96179199 125.85253906 -7.97631836 C140.1247663 -7.90227673 152.20096936 -4.4209971 165.21484375 1.125 C177.2655709 6.08903046 189.04532695 7.95295789 202.00634766 7.83251953 C204.06870028 7.81635766 206.12911026 7.83251691 208.19140625 7.8515625 C220.20453657 7.87272485 230.49631035 5.23537412 241.625 0.94140625 C244.72494877 -0.23683154 247.82844873 -1.40458199 250.9375 -2.55859375 C251.65115723 -2.82800781 252.36481445 -3.09742188 253.10009766 -3.375 C278.63443156 -12.52437195 306.66055544 -8.55098401 331.05688477 1.53515625 C342.97746726 6.35638525 354.81762497 8.00801159 367.625 7.94140625 C368.93718506 7.93496094 370.24937012 7.92851562 371.60131836 7.921875 C387.59735082 7.622755 400.93870819 3.15240799 415.64868164 -2.79101562 C423.9557448 -6.12853643 432.00849194 -8.8666581 440.9375 -6.55859375 C446.66364902 -3.64149897 449.90730663 0.35082615 451.9375 6.44140625 C452.03316357 8.03927154 452.07240267 9.64081455 452.07794189 11.24153137 C452.08365204 12.22985458 452.08936218 13.2181778 452.09524536 14.2364502 C452.09636322 15.31962524 452.09748108 16.40280029 452.09863281 17.51879883 C452.10359772 18.66052048 452.10856262 19.80224213 452.11367798 20.9785614 C452.12831089 24.76435951 452.13510347 28.55011573 452.140625 32.3359375 C452.14637547 34.96286521 452.15213321 37.5897929 452.15789795 40.21672058 C452.16746859 45.02402895 452.17336583 49.83132827 452.1763947 54.63864499 C452.18087377 61.70837244 452.19841571 68.77790639 452.2273953 75.84757501 C452.25164055 81.97555523 452.25934019 88.10345572 452.26107025 94.23148155 C452.26409909 96.83619935 452.27213535 99.44091628 452.28525543 102.0456028 C452.30229839 105.68916123 452.30043963 109.33224802 452.29394531 112.97583008 C452.3031601 114.05293243 452.31237488 115.13003479 452.3218689 116.23977661 C452.28592102 122.67382921 451.76519215 127.3759309 447.21875 132.3046875 C446.6309375 132.78292969 446.043125 133.26117188 445.4375 133.75390625 C444.8496875 134.24503906 444.261875 134.73617187 443.65625 135.2421875 C439.7927756 137.93783896 435.74769975 137.58353658 431.2449522 137.57283401 C430.05215282 137.57591297 430.05215282 137.57591297 428.83525649 137.57905412 C426.1481869 137.58474644 423.46116821 137.58326413 420.77409363 137.58184814 C418.83712384 137.5844305 416.90015459 137.58744329 414.96318609 137.59085155 C409.62280546 137.59893998 404.28243827 137.60071214 398.94205225 137.60144901 C393.18937656 137.60329636 387.4367079 137.61084204 381.68403625 137.61758423 C369.09743654 137.63118086 356.51083999 137.63719425 343.92423415 137.64159489 C336.06980748 137.6443549 328.21538203 137.64859179 320.36095619 137.65309906 C298.62757399 137.66529314 276.89419312 137.67562779 255.16080761 137.67897415 C253.75508786 137.67919579 252.34936811 137.67941757 250.94364836 137.6796395 C249.53450846 137.67986014 248.12536856 137.68008063 246.71622866 137.68030095 C243.88918825 137.68074351 241.06214784 137.68119062 238.23510742 137.68164062 C237.53416457 137.68175002 236.83322172 137.68185941 236.11103817 137.68197211 C213.37716087 137.68560366 190.64331544 137.70152723 167.90945034 137.72483099 C143.88146787 137.74941634 119.8535044 137.76313965 95.82550889 137.76434207 C82.72441096 137.76526001 69.62335476 137.77104225 56.5222683 137.78916168 C45.36821911 137.80453358 34.21422455 137.80970036 23.0601668 137.80142358 C17.36633727 137.79750683 11.67261783 137.79849657 5.97880173 137.81248093 C0.76960233 137.82515838 -4.43940355 137.82407675 -9.64860245 137.81189021 C-11.53622664 137.8099225 -13.42386425 137.81306082 -15.31146953 137.82173458 C-17.87202629 137.83275857 -20.43189178 137.82538781 -22.99242878 137.81334305 C-24.09856288 137.82473584 -24.09856288 137.82473584 -25.22704312 137.83635879 C-30.75388428 137.78001231 -34.83525317 136.4958897 -38.92578125 132.72265625 C-39.40402344 132.13484375 -39.88226563 131.54703125 -40.375 130.94140625 C-40.86613281 130.35359375 -41.35726562 129.76578125 -41.86328125 129.16015625 C-44.028496 126.05691687 -44.19141263 123.31633217 -44.20967102 119.65473938 C-44.21682632 118.66930649 -44.22398163 117.6838736 -44.23135376 116.6685791 C-44.23404266 115.58854614 -44.23673157 114.50851318 -44.23950195 113.39575195 C-44.24607315 112.25724289 -44.25264435 111.11873383 -44.25941467 109.94572449 C-44.27916115 106.16954485 -44.2908137 102.39340502 -44.30078125 98.6171875 C-44.30485678 97.32808157 -44.3089323 96.03897564 -44.31313133 94.71080589 C-44.33184622 88.59082642 -44.34641005 82.47086691 -44.3547433 76.35086471 C-44.36450632 69.29807976 -44.39080231 62.24560944 -44.43124419 55.19293529 C-44.46511213 49.07563763 -44.47689406 42.95847162 -44.48094749 36.84108543 C-44.48581772 34.24359187 -44.49744399 31.64610177 -44.51598549 29.04866982 C-44.54034257 25.41020339 -44.53941747 21.77255626 -44.5324707 18.1340332 C-44.54528076 17.0641214 -44.55809082 15.99420959 -44.57128906 14.89187622 C-44.51813142 7.24006667 -43.19888935 1.5777956 -37.6875 -3.93359375 C-25.53971014 -11.45365414 -12.12311006 -4.67996259 0 0 Z " fill="#22A7FD" transform="translate(52.0625,366.55859375)"/>
<path d="M0 0 C0.33 0 0.66 0 1 0 C1.09273443 11.10931122 1.16378263 22.21853015 1.20724869 33.3281498 C1.22811166 38.48697214 1.25640597 43.64552942 1.30175781 48.80419922 C1.34526124 53.78385392 1.36914681 58.76325386 1.37950897 63.74308395 C1.38689224 65.64168686 1.40131014 67.54027602 1.42292023 69.43877029 C1.45201408 72.10092403 1.45595352 74.76202893 1.45410156 77.42431641 C1.47567322 78.59820419 1.47567322 78.59820419 1.49768066 79.79580688 C1.45869668 84.98453256 0.3794907 87.85731227 -3 92 C-23.25816511 110.482287 -61.13705353 112.10541042 -87 115 C-88.15628906 115.13293457 -89.31257813 115.26586914 -90.50390625 115.40283203 C-94.16812538 115.82133171 -97.83367116 116.2254328 -101.5 116.625 C-102.58861328 116.74818604 -103.67722656 116.87137207 -104.79882812 116.99829102 C-127.47600973 119.38440807 -150.32920603 119.18810527 -173.10327148 119.18530273 C-176.46953774 119.18522203 -179.83566627 119.1920936 -183.2019043 119.20581055 C-301.08136364 119.67807951 -301.08136364 119.67807951 -346 98 C-346.96220459 97.53811279 -346.96220459 97.53811279 -347.94384766 97.06689453 C-352.95846087 94.45181238 -356.45618091 91.08763817 -359 86 C-359.09312908 83.31470138 -359.12578322 80.65555582 -359.11352539 77.97021484 C-359.11367142 77.14086929 -359.11381744 76.31152374 -359.1139679 75.45704651 C-359.11326971 72.70831715 -359.10548171 69.95965506 -359.09765625 67.2109375 C-359.09579174 65.30807533 -359.09436799 63.40521268 -359.09336853 61.50234985 C-359.08954599 56.48818644 -359.07971793 51.47405189 -359.06866455 46.4598999 C-359.05844479 41.34566641 -359.0538697 36.23142826 -359.04882812 31.1171875 C-359.03809545 21.07811231 -359.02102216 11.03905855 -359 1 C-357 2 -357 2 -355.64453125 4.375 C-348.9730406 15.02403021 -330.32130364 18.31097078 -318.94140625 20.9609375 C-300.68445484 24.94867085 -281.62277188 28.60688762 -262.9375 29.5625 C-256.48388282 29.89998905 -256.48388282 29.89998905 -253.66560364 30.48248291 C-232.13299056 34.66296012 -208.58924105 33.32185932 -186.7409668 33.26074219 C-182.64892485 33.24939623 -178.55714462 33.25611523 -174.46511173 33.26761627 C-146.11581911 33.33515018 -117.68079389 32.65486049 -89.50756836 29.25 C-87.34153473 28.98841037 -85.17401155 28.7433616 -83.00585938 28.5 C-75.27719908 27.61644252 -67.63680883 26.49091092 -60 25 C-58.06525873 24.6514846 -56.13035697 24.30385924 -54.1953125 23.95703125 C-25.89125612 19.60515569 -25.89125612 19.60515569 -2.3203125 5.01171875 C-0.83763666 2.93984437 -0.83763666 2.93984437 0 0 Z " fill="#203256" transform="translate(435,128)"/>
<path d="M0 0 C1.56003969 1.96915673 2.0869244 3.21731138 2.35546875 5.7109375 C1.4717005 9.71627253 -0.51630445 12.76744959 -3.6484375 15.38671875 C-10.46226974 19.73095775 -17.95377597 22.36655667 -25.64453125 24.7109375 C-26.41297363 24.948125 -27.18141602 25.1853125 -27.97314453 25.4296875 C-45.8655324 30.82374202 -64.16448352 33.33717517 -82.64453125 35.7109375 C-83.88412598 35.87223145 -85.1237207 36.03352539 -86.40087891 36.19970703 C-100.57993755 38.01042302 -114.66467116 39.10710693 -128.953125 39.5 C-132.71718257 39.61117289 -136.43650984 39.85459902 -140.18481445 40.21142578 C-146.69304088 40.76548601 -153.16215979 40.88895544 -159.69140625 40.9140625 C-160.92065323 40.92103149 -162.14990021 40.92800049 -163.41639709 40.93518066 C-167.40912409 40.95258997 -171.40177461 40.95936606 -175.39453125 40.9609375 C-176.41975702 40.96182121 -176.41975702 40.96182121 -177.46569443 40.96272278 C-223.37008732 40.99060383 -269.75918572 39.02620324 -314.64453125 28.7109375 C-315.51770996 28.51387207 -316.39088867 28.31680664 -317.29052734 28.11376953 C-325.96992885 26.12027915 -334.31568461 23.7007677 -342.51953125 20.2109375 C-343.16801025 19.93846191 -343.81648926 19.66598633 -344.48461914 19.38525391 C-350.27380036 16.77147892 -355.17572568 12.66511564 -357.64453125 6.7109375 C-357.02204687 1.83480988 -354.71551436 -0.86780739 -350.97265625 -3.7890625 C-285.20819896 -46.16079337 -157.16765978 -32.03026108 0 0 Z " fill="#203256" transform="translate(433.64453125,36.2890625)"/>
<path d="M0 0 C0.44875488 0.60779297 0.89750977 1.21558594 1.35986328 1.84179688 C5.23577136 6.94197958 9.25044688 10.03084733 15.125 12.5 C15.81948242 12.79624268 16.51396484 13.09248535 17.22949219 13.39770508 C25.58199504 16.82601268 34.21131248 19.00884061 43 21 C43.76731445 21.1762793 44.53462891 21.35255859 45.32519531 21.53417969 C68.18296654 26.6899952 91.64283692 29.42153748 115 31 C116.26102539 31.09023438 117.52205078 31.18046875 118.82128906 31.2734375 C157.56018578 34.00318571 196.42980011 33.90885923 235.1875 31.625 C236.25784485 31.56196686 237.3281897 31.49893372 238.43096924 31.43399048 C257.64981612 30.27249766 276.69060264 28.4770088 295.6875 25.3125 C296.84282227 25.12133102 296.84282227 25.12133102 298.02148438 24.92630005 C328.85818552 20.1722475 328.85818552 20.1722475 356 6 C357.88568694 2.89985071 357.88568694 2.89985071 359 0 C359.33 0 359.66 0 360 0 C360.02312446 9.76150988 360.04091561 19.5230133 360.05181217 29.28454494 C360.05704078 33.81674094 360.06413801 38.34891827 360.07543945 42.88110352 C360.08626914 47.2512283 360.09227701 51.62133508 360.09487724 55.99147224 C360.09673135 57.66250963 360.10035168 59.33354597 360.10573006 61.00457573 C360.11294159 63.33697551 360.1139909 65.66929993 360.11352539 68.00170898 C360.11712067 68.6994191 360.12071594 69.39712921 360.12442017 70.11598206 C360.11405216 74.88594784 360.11405216 74.88594784 359 76 C337.33424244 77.47628517 318.82695747 75.16470416 298.74194336 66.90625 C286.98533788 62.14008992 275.84440845 60.48248731 263.1875 60.625 C262.52847687 60.63031738 261.86945374 60.63563477 261.19046021 60.64111328 C244.56982816 60.79808019 231.25475831 63.88143911 215.91015625 70.0625 C190.46029955 80.244447 161.84544638 78.2335367 136.8125 67.9375 C136.04067383 67.5971875 135.26884766 67.256875 134.47363281 66.90625 C122.69049293 61.82739558 110.86476787 60.4798011 98.125 60.625 C97.46747742 60.63064972 96.80995483 60.63629944 96.13250732 60.64212036 C78.65463555 60.81772013 64.94062389 64.44112062 48.76171875 70.84375 C38.30527622 74.82732293 29.13700901 76.44870276 17.98046875 76.28125 C15.84357603 76.2495336 13.70741945 76.24021143 11.5703125 76.234375 C1.16432781 76.16432781 1.16432781 76.16432781 0 75 C-0.09492722 72.65746218 -0.12559791 70.34453896 -0.11352539 68.00170898 C-0.11367142 67.27004517 -0.11381744 66.53838135 -0.1139679 65.7845459 C-0.11326867 63.35503216 -0.10547585 60.92559417 -0.09765625 58.49609375 C-0.0957921 56.81600486 -0.09436819 55.13591543 -0.09336853 53.45582581 C-0.08954307 49.02526357 -0.07971256 44.5947339 -0.06866455 40.16418457 C-0.05845103 35.64657024 -0.05387104 31.12895066 -0.04882812 26.61132812 C-0.03809031 17.74087107 -0.02101356 8.87043824 0 0 Z " fill="#203256" transform="translate(76,299)"/>
<path d="M0 0 C23.73412988 9.34881122 49.55962464 9.64796504 73.19995117 -0.23730469 C104.90118697 -12.80805791 134.96405523 -12.18853779 166.51245117 0.63769531 C178.74755752 5.57663732 189.97145376 6.81516737 203.07495117 6.95019531 C204.11538574 6.96791992 205.15582031 6.98564453 206.2277832 7.00390625 C218.25256201 6.99254604 228.70114358 3.43194379 239.72924805 -1.02050781 C244.48129235 -2.86089491 248.32603272 -3.92916198 253.51245117 -3.36230469 C256.89922206 -0.91230022 258.29943701 0.50161978 259.07495117 4.63769531 C258.34787904 8.51541333 257.32188105 9.83679178 254.51245117 12.63769531 C251.37483922 14.30963558 248.10709107 15.50708163 244.76245117 16.70019531 C243.81289551 17.04308594 242.86333984 17.38597656 241.88500977 17.73925781 C239.10110043 18.72683921 236.30781608 19.68314232 233.51245117 20.63769531 C232.49876465 21.00870361 232.49876465 21.00870361 231.46459961 21.38720703 C221.80494787 24.88340475 212.09685191 25.01970657 201.94995117 25.07519531 C200.65976074 25.08550781 199.36957031 25.09582031 198.0402832 25.10644531 C186.07481416 24.99701895 174.6509818 23.28161673 163.51245117 18.76269531 C162.17736098 18.23710041 160.84139875 17.71371603 159.50463867 17.19238281 C158.84560547 16.93295898 158.18657227 16.67353516 157.50756836 16.40625 C154.24556922 15.14966981 150.94884612 14.0064786 147.63745117 12.88769531 C146.5056543 12.50097656 145.37385742 12.11425781 144.20776367 11.71582031 C119.45557304 4.49425095 96.35329414 9.50283658 73.05932617 18.83300781 C47.30107604 29.13840779 17.7958735 26.56805026 -7.52026367 16.40625 C-10.78711248 15.12999782 -14.09965141 14.00066136 -17.42504883 12.88769531 C-19.14014648 12.30761719 -19.14014648 12.30761719 -20.88989258 11.71582031 C-43.05312964 5.07406849 -64.95270581 8.39058706 -86.11254883 16.63769531 C-100.38129498 22.18700766 -112.66270891 24.99104901 -128.05004883 25.07519531 C-129.34023926 25.08550781 -130.63042969 25.09582031 -131.9597168 25.10644531 C-144.01494366 24.9961981 -155.69396207 23.25240959 -166.92504883 18.70019531 C-167.59044678 18.43932129 -168.25584473 18.17844727 -168.94140625 17.90966797 C-183.34827201 12.18365856 -183.34827201 12.18365856 -185.48754883 7.63769531 C-185.98754883 4.70019531 -185.98754883 4.70019531 -185.48754883 1.63769531 C-183.42504883 -1.23730469 -183.42504883 -1.23730469 -180.48754883 -3.36230469 C-174.02956916 -4.15611525 -169.1835199 -1.92054519 -163.36254883 0.51269531 C-151.52349511 5.19417447 -141.18041993 6.75938729 -128.48754883 6.88769531 C-127.15252319 6.90219727 -127.15252319 6.90219727 -125.79052734 6.91699219 C-113.54658588 6.85448323 -103.06549079 4.47337189 -91.80004883 -0.23730469 C-60.50459197 -12.64715103 -31.18609443 -12.40419181 0 0 Z " fill="#198DCE" transform="translate(219.487548828125,410.3623046875)"/>
<path d="M0 0 C0.78503906 -0.03738281 1.57007813 -0.07476562 2.37890625 -0.11328125 C6.6986394 -0.17884212 8.35979997 -0.02356354 11.89453125 2.7109375 C13.875 5.375 13.875 5.375 14.4375 8.375 C13.74706143 12.05733904 12.50686072 13.74313928 9.875 16.375 C5.29716541 17.90094486 0.67068246 18.04997293 -4.125 18.375 C-5.11242187 18.45363281 -6.09984375 18.53226563 -7.1171875 18.61328125 C-11.75025013 18.83300644 -14.31156732 18.88538913 -18.3125 16.375 C-20.83043006 12.20739162 -20.81431628 10.20021399 -20.125 5.375 C-18.5625 2.9375 -18.5625 2.9375 -16.125 1.375 C-10.76118571 0.37565817 -5.44034791 0.09924349 0 0 Z " fill="#22A4F9" transform="translate(319.125,193.625)"/>
<path d="M0 0 C1.07636719 -0.01933594 2.15273437 -0.03867188 3.26171875 -0.05859375 C12.06867936 -0.00429683 12.06867936 -0.00429683 15.84375 2.91015625 C18.91160261 6.56111099 18.91160261 6.56111099 18.75 9.6875 C18.07815923 13.92009682 17.50963799 15.13629559 14.125 17.625 C10.39553942 19.48973029 5.8984632 18.5556253 1.8125 18.375 C0.38647461 18.33439453 0.38647461 18.33439453 -1.06835938 18.29296875 C-9.9591314 17.90776409 -9.9591314 17.90776409 -13.875 14.625 C-16.21668764 11.11246854 -16.37123677 9.76030644 -15.875 5.625 C-12.58033365 -1.20540585 -6.66127864 -0.11880996 0 0 Z " fill="#23A4F9" transform="translate(194.875,108.375)"/>
<path d="M0 0 C1.47726563 0.06574219 1.47726563 0.06574219 2.984375 0.1328125 C12.03446262 0.69538551 12.03446262 0.69538551 16 4 C17.56700442 7.13400885 17.85164561 10.63155095 17 14 C14.08445148 17.2629088 12.422016 17.95463536 8.0390625 18.42578125 C6.56732373 18.40863734 5.09570126 18.37035101 3.625 18.3125 C2.89539063 18.30283203 2.16578125 18.29316406 1.4140625 18.28320312 C-10.82062271 18.03195513 -10.82062271 18.03195513 -15 14.375 C-17 11 -17 11 -17.125 7.375 C-16 4 -16 4 -14.125 1.5625 C-9.41047625 -0.79476187 -5.17351031 -0.33858052 0 0 Z " fill="#23A5FA" transform="translate(196,279)"/>
<path d="M0 0 C0.97710937 0.03351563 1.95421875 0.06703125 2.9609375 0.1015625 C6.88963754 0.32572256 9.57630707 0.78815353 13.125 2.5625 C15.29905578 5.38877251 15.74066814 7.46410818 15.4609375 11.02734375 C15 13 15 13 13.25 16 C8.25520194 19.07372188 3.71265828 18.40357391 -2 18 C-3.00675781 17.96648437 -4.01351562 17.93296875 -5.05078125 17.8984375 C-10.5262463 17.61688449 -14.12344079 17.26421513 -18 13 C-19.44430855 10.11138291 -19.37688506 8.20352299 -19 5 C-14.91274184 -2.2313029 -7.23729036 -0.457258 0 0 Z " fill="#22A5F9" transform="translate(198,194)"/>
<path d="M0 0 C3.171875 0.11328125 3.171875 0.11328125 6.046875 1.67578125 C8.85165095 4.89302425 9.24637423 6.86682516 9.171875 11.11328125 C7.27636668 14.66735935 5.90613119 15.84533885 2.12109375 17.2265625 C-2.40004729 18.41493965 -6.86368435 18.48105213 -11.515625 18.48828125 C-12.35673828 18.51277344 -13.19785156 18.53726562 -14.06445312 18.5625 C-20.12923398 18.59135701 -20.12923398 18.59135701 -23.375 16.37109375 C-24.97560049 13.88413923 -25.39565374 12.55006576 -25.390625 9.61328125 C-25.41253906 8.86046875 -25.43445313 8.10765625 -25.45703125 7.33203125 C-24.48642053 3.90776487 -22.84711406 2.91590087 -19.828125 1.11328125 C-17.08287721 0.66624716 -14.69996723 0.41975838 -11.953125 0.36328125 C-11.27121094 0.33363281 -10.58929688 0.30398438 -9.88671875 0.2734375 C-6.59250198 0.14166883 -3.29548635 0.09751949 0 0 Z " fill="#23A5FA" transform="translate(323.828125,278.88671875)"/>
<path d="M0 0 C1.08410156 -0.01933594 2.16820312 -0.03867188 3.28515625 -0.05859375 C11.14398574 -0.01002249 11.14398574 -0.01002249 14.58203125 2.9765625 C16.18545915 6.26092539 16.55136517 8.0177191 15.875 11.625 C13.702365 14.19785724 11.89506162 16.11496919 8.875 17.625 C5.0896452 17.91952482 1.29547488 17.90295381 -2.5 17.9375 C-3.55445313 17.96650391 -4.60890625 17.99550781 -5.6953125 18.02539062 C-6.71109375 18.03376953 -7.726875 18.04214844 -8.7734375 18.05078125 C-10.16828369 18.07265503 -10.16828369 18.07265503 -11.59130859 18.0949707 C-14.92412413 17.47677164 -16.08183195 16.2853324 -18.125 13.625 C-18.99578652 8.13904494 -18.99578652 8.13904494 -18.125 5.625 C-12.99346088 -0.48188303 -7.60729186 -0.13665794 0 0 Z " fill="#23A5FA" transform="translate(317.125,108.375)"/>
<path d="M0 0 C0.97195313 -0.01933594 1.94390625 -0.03867188 2.9453125 -0.05859375 C7.49880876 -0.02757538 10.96962597 0.07257159 14.64453125 2.9453125 C17 5.625 17 5.625 17.6875 9.125 C16.78771682 13.70571437 15.7921488 14.88135032 12 17.625 C7.98847533 18.37072972 4.0693746 18.32284083 0 18.25 C-1.62035156 18.27900391 -1.62035156 18.27900391 -3.2734375 18.30859375 C-11.1221312 18.26014502 -11.1221312 18.26014502 -15.20703125 15.3046875 C-17.60566439 11.71980224 -17.83036868 9.85233146 -17 5.625 C-11.95989012 -0.10885635 -7.36226899 -0.14646424 0 0 Z " fill="#22A5F9" transform="translate(256,195.375)"/>
<path d="M0 0 C1.62035156 -0.02900391 1.62035156 -0.02900391 3.2734375 -0.05859375 C11.12817997 -0.01010769 11.12817997 -0.01010769 15.22265625 2.97265625 C17.38667601 6.20203959 17.56847053 7.80812647 17 11.625 C16.14063137 14.20310589 15.56252147 15.27475968 13.25195312 16.71337891 C8.89079731 18.47883379 4.14365468 17.99427416 -0.5 18 C-2.06814453 18.03673828 -2.06814453 18.03673828 -3.66796875 18.07421875 C-5.17810547 18.08001953 -5.17810547 18.08001953 -6.71875 18.0859375 C-7.63591797 18.09415527 -8.55308594 18.10237305 -9.49804688 18.11083984 C-12.7530636 17.47876692 -13.91819643 16.14393538 -16 13.625 C-17.44430855 10.73638291 -17.37688506 8.82852299 -17 5.625 C-12.67375825 -0.86436263 -7.08714739 -0.12685825 0 0 Z " fill="#23A6FB" transform="translate(256,110.375)"/>
<path d="M0 0 C1.62035156 -0.02900391 1.62035156 -0.02900391 3.2734375 -0.05859375 C11.13176845 -0.01008553 11.13176845 -0.01008553 15.21484375 2.9765625 C17.4200227 6.2481409 17.72566031 7.75481169 17 11.625 C15.20006226 14.32490662 13.916227 16.1668865 11 17.625 C7.40235402 17.91882599 3.79574606 17.90296031 0.1875 17.9375 C-0.81087891 17.96650391 -1.80925781 17.99550781 -2.83789062 18.02539062 C-10.23107012 18.08942216 -10.23107012 18.08942216 -14.13671875 15.73046875 C-16.35151502 13.2277954 -16.93227262 12.13295536 -17.375 8.8125 C-17 5.625 -17 5.625 -15.2265625 2.96484375 C-10.35494093 -0.56796657 -5.86725513 -0.10502247 0 0 Z " fill="#23A5FA" transform="translate(256,281.375)"/>
</svg>
