<svg xmlns="http://www.w3.org/2000/svg" xmlns:xlink="http://www.w3.org/1999/xlink" viewBox="0 0 81 81" fill="#fff" fill-rule="evenodd" stroke="#000" stroke-linecap="round" stroke-linejoin="round"><use xlink:href="#A" x=".5" y=".5"/><symbol id="A" overflow="visible"><path d="M63.1 55.375c-.822 0-1.489.309-2 .948s-.733 1.485-.733 2.537c0 1.063.256 1.897.733 2.537.511.64 1.134.948 1.911.948.811 0 1.433-.309 1.956-.903.467-.64.722-1.474.722-2.537 0-1.097-.256-2-.722-2.64-.433-.583-1.056-.891-1.867-.891zm13.3-16.123l-.067.194c-.022.069-.067.137-.089.183v.023c-.044.057-.089.103-.122.171 0 0 0 .023-.022.023a.75.75 0 0 1-.155.172l-.022.023c-.044.069-.111.114-.167.183l-.022.023-.2.149-.022.023c-.055.046-.122.114-.211.16l-.022.023c-.089.046-.144.103-.233.148l-.022.023c-.089.046-.167.114-.255.16 0 0-.022 0-.022.023-.111.034-.189.103-.3.149-.644.331-1.433.617-2.344.88-.011 0-.033 0-.033.023-.111.046-.245.069-.367.091-.044.023-.089.023-.133.046-.1.023-.211.069-.322.091-.067.023-.1.023-.167.034l-.322.069c-.067.023-.133.023-.211.046l-.311.069c-.078.023-.144.023-.233.046l-.3.069c-.089.011-.167.011-.256.034-.111.023-.189.046-.3.046-.089.023-.167.023-.278.046s-.189.023-.3.046c-.089.023-.2.023-.3.046-.111.023-.2.023-.3.046-.111.023-.211.023-.3.046-.111.011-.2.011-.3.034-.111.023-.222.023-.322.046-.111 0-.2.023-.3.023-.111 0-.233.023-.344.023s-.2.023-.3.023c-.111 0-.233.023-.367.023-.111 0-.189.023-.3.023-.133 0-.256.023-.367.023-.089 0-.189 0-.278.023-.133 0-.256.023-.411.023H64.1c-.144 0-.3 0-.444.023h-2.533c-.133 0-.278 0-.411-.023-.1 0-.189 0-.278-.023-.122 0-.256-.023-.367-.023-.1 0-.189-.023-.3-.023-.1 0-.233-.023-.344-.023-.1 0-.189-.023-.3-.023-.1 0-.211-.023-.344-.023-.1 0-.189-.023-.3-.023-.1 0-.211-.023-.322-.046-.1-.023-.211-.023-.3-.046-.1-.011-.189-.011-.3-.034-.1-.023-.211-.023-.3-.046-.078-.023-.189-.023-.278-.046-.1-.023-.211-.023-.3-.046s-.167-.023-.256-.046c-.111-.023-.211-.046-.322-.046-.089-.023-.167-.023-.233-.046l-.322-.057c-.089-.023-.156-.023-.211-.046l-.322-.069c-.067-.023-.133-.023-.2-.046l-.322-.069c-.067-.023-.1-.023-.167-.034-.111-.023-.233-.069-.345-.091-.044 0-.089-.023-.133-.023-.122-.023-.255-.069-.356-.114-.022 0-.044 0-.044-.023-1.2-.354-2.211-.766-2.967-1.234-.089-.069-.166-.114-.255-.171H50.2l-.233-.183-.022-.023c-.067-.057-.133-.103-.189-.171l-.022-.023c-.067-.069-.133-.114-.178-.183l-.022-.012a1.03 1.03 0 0 1-.145-.183V39.8c-.044-.069-.089-.126-.133-.171v-.023c-.045-.069-.067-.137-.111-.206l-.055-.194c-.044-.137-.067-.24-.067-.377 0-2.32 6.155-4.274 13.767-4.274 7.622 0 13.778 1.92 13.778 4.274-.111.183-.133.286-.167.423zm-.2 25.002h-6.267V53.41H72.3v8.833h3.9v2.011zm-10.378 1.543l-1.4-1.486c-.344.091-.856.16-1.433.16-1.478 0-2.722-.537-3.689-1.52-.922-1.017-1.444-2.32-1.444-3.977 0-1.703.478-3.062 1.444-4.125.989-1.063 2.211-1.588 3.8-1.588 1.478 0 2.722.526 3.645 1.52s1.389 2.32 1.389 4.022c0 1.691-.467 3.062-1.433 4.125l-.211.217 2.678 2.651h-3.344zm-9.289-3.131c-.222.411-.522.743-.922 1.006-.367.263-.822.423-1.333.537a7.99 7.99 0 0 1-1.589.148 8.76 8.76 0 0 1-1.656-.148c-.533 0-.978-.183-1.344-.377v-2.434c.4.377.878.64 1.389.846.522.149 1.033.263 1.478.263a2.5 2.5 0 0 0 .778-.114c.211-.046.411-.103.556-.217.156-.114.256-.217.3-.377.044-.148.111-.263.111-.411 0-.229-.044-.423-.156-.583-.1-.149-.256-.309-.467-.48-.211-.16-.478-.263-.733-.423-.256-.103-.556-.263-.922-.423-.811-.366-1.433-.789-1.844-1.257a2.83 2.83 0 0 1-.622-1.851c0-.571.111-1.051.3-1.428.222-.423.522-.754.878-1.017.367-.263.822-.491 1.333-.571.511-.114 1.033-.16 1.589-.16s1.033.046 1.433.114c.411.046.822.148 1.189.309v2.274a2.71 2.71 0 0 0-.567-.309c-.189-.091-.4-.16-.622-.229-.211-.034-.467-.103-.667-.148-.211-.046-.4-.046-.622-.046-.256 0-.511 0-.722.046s-.411.114-.556.217c-.156.114-.267.228-.367.309-.111.16-.111.263-.111.423 0 .149.044.309.156.48.1.16.211.274.4.423.156.114.367.263.622.377.267.114.522.263.822.377.4.149.811.377 1.133.571a3.97 3.97 0 0 1 .878.686c.256.263.411.526.556.903.111.308.222.685.222 1.165 0 .571-.111 1.108-.3 1.531zm6.156-29.859c-9.544 0-17.311 2.891-17.311 6.445v34.281c0 3.508 7.633 6.399 17.056 6.445V80h.255C72.256 80 80 77.086 80 73.555V39.252c0-3.599-7.767-6.445-17.311-6.445zm-27.8 21.517h7.656v-7.884h-7.656v7.884zm-10.8-10.684h7.667v-7.873h-7.667v7.873zm0 10.684h7.667v-7.884h-7.667v7.884zm-4.822-21.357h7.655v-7.885h-7.655v7.885zm-6.078 10.673h7.667v-7.873h-7.667v7.873zm0 10.684h7.667v-7.884h-7.667v7.884zM48.811 33.47c1.622-.731 3.555-1.28 5.656-1.68V21.288h5.644v-4.811L30.167 0 0 16.478v4.811h6.156v33.298h5.156V21.288h37.5V33.47z" fill="#0078d7" stroke="none"/></symbol></svg>