<?xml version="1.0" encoding="UTF-8"?>
<svg version="1.1" xmlns="http://www.w3.org/2000/svg" width="512" height="512">
<path d="M0 0 C6.46087246 6.14570795 10.78433829 12.82266938 15.19424438 20.53005981 C16.65566866 23.08390877 18.13334299 25.62823519 19.60984802 28.17338562 C20.39122567 29.52066443 21.17178277 30.86841945 21.95155334 32.21662903 C26.36689453 39.84618983 30.86847575 47.42406391 35.375 55 C36.19167459 56.3742532 37.00832513 57.74852069 37.82495117 59.12280273 C42.50525573 66.995934 47.20492533 74.85716163 51.92700195 82.70532227 C57.09159304 91.29814097 62.20009123 99.92425415 67.3137207 108.54745483 C72.20567913 116.79644886 77.11270777 125.03552191 82.0625 133.25 C98.87862391 161.17630645 100.58164856 175.88357061 96.73657227 208.41796875 C96.32581315 211.8947366 95.93378589 215.37332949 95.54695415 218.85283089 C95.17021004 222.21816441 94.77777074 225.58161127 94.38671875 228.9453125 C94.18026985 230.80012741 94.18026985 230.80012741 93.96965027 232.69241333 C92.24975328 246.98277852 87.77396368 254.0536276 76.6484375 262.95703125 C73.45103035 265.52709902 70.31290574 268.15595215 67.1875 270.8125 C66.64561035 271.27213135 66.1037207 271.7317627 65.54541016 272.20532227 C63.88373536 273.61522072 62.22297736 275.02619157 60.5625 276.4375 C58.35512849 278.31363639 56.14695445 280.18881692 53.9375 282.0625 C53.40278076 282.51616943 52.86806152 282.96983887 52.31713867 283.43725586 C47.89667653 287.17743966 43.41409467 290.83508925 38.90234375 294.46484375 C36.66186196 296.35373073 34.6004558 298.33365186 32.5625 300.4375 C40.71289351 312.09779759 48.88218158 323.74423062 57.09472656 335.36083984 C59.58570986 338.88517516 62.07394903 342.41144701 64.5625 345.9375 C65.56248722 347.35417568 66.56248722 348.77084236 67.5625 350.1875 C77.5625 364.35416667 87.5625 378.52083333 97.5625 392.6875 C98.05733887 393.3885083 98.55217773 394.0895166 99.06201172 394.81176758 C100.06369043 396.23083958 101.0653179 397.64994775 102.06689453 399.0690918 C104.54079495 402.57425274 107.01553366 406.07881515 109.4921875 409.58203125 C116.6486323 419.70755081 123.77723161 429.85243875 130.86962891 440.02294922 C132.07238429 441.73844543 133.28393035 443.44779317 134.50146484 445.15283203 C135.45013428 446.48677002 135.45013428 446.48677002 136.41796875 447.84765625 C136.99571045 448.65468994 137.57345215 449.46172363 138.16870117 450.29321289 C141.41241471 455.2834977 141.08373207 460.69604976 140.5625 466.4375 C138.69377801 474.47300455 131.83331622 478.76413725 125.5625 483.4375 C124.33561395 484.36415511 123.10906526 485.29125701 121.8828125 486.21875 C119.21325986 488.23162482 116.5347652 490.23193003 113.8515625 492.2265625 C110.84650656 494.46608775 107.86575834 496.73415008 104.8984375 499.0234375 C104.13225098 499.61415039 103.36606445 500.20486328 102.57666016 500.81347656 C101.09768329 501.95595988 99.62070217 503.10103272 98.14599609 504.24902344 C97.47391113 504.76754883 96.80182617 505.28607422 96.109375 505.8203125 C95.51995117 506.27809082 94.93052734 506.73586914 94.32324219 507.20751953 C90.35051221 509.98270168 87.29941415 510.79691453 82.4375 510.9375 C81.38304687 510.9890625 80.32859375 511.040625 79.2421875 511.09375 C70.23191722 509.48682282 62.34564705 502.31134083 55 497.125 C46.5850737 491.22633888 38.1301953 485.39277957 29.625 479.625 C20.86862522 473.68460791 12.12889004 467.72192432 3.41748047 461.71582031 C0.13451353 459.45343351 -3.15172243 457.19580186 -6.4375 454.9375 C-7.77084756 454.02085403 -9.10418093 453.10418741 -10.4375 452.1875 C-11.4275 451.506875 -11.4275 451.506875 -12.4375 450.8125 C-18.43750001 446.68749999 -18.43750001 446.68749999 -20.43676758 445.31298828 C-21.77252333 444.39466639 -23.10829812 443.4763722 -24.4440918 442.55810547 C-27.74051745 440.29198843 -31.03663027 438.02541941 -34.33203125 435.7578125 C-42.33252578 430.25347226 -50.3411939 424.76126641 -58.359375 419.28271484 C-62.14852519 416.69269206 -65.93390052 414.0976923 -69.70703125 411.484375 C-78.17503457 405.62323196 -86.73486569 399.94463577 -95.4375 394.4375 C-95.48186188 395.24772614 -95.52622375 396.05795227 -95.57192993 396.89273071 C-96.17551893 406.59072418 -97.4065108 416.10628741 -98.8359375 425.7109375 C-99.07414287 427.33083219 -99.31214541 428.95075672 -99.54995728 430.57070923 C-100.04562961 433.93782426 -100.54539273 437.30430146 -101.04785156 440.67041016 C-101.68843276 444.96574773 -102.31600261 449.26287631 -102.9402523 453.56061363 C-103.4265528 456.89539193 -103.92103014 460.2289203 -104.41780472 463.56215286 C-104.65262463 465.14604058 -104.8846527 466.73034501 -105.11371994 468.31507492 C-108.1594692 489.32166082 -108.1594692 489.32166082 -114.4375 494.375 C-115.118125 494.94089844 -115.79875 495.50679688 -116.5 496.08984375 C-126.56832433 503.09301289 -146.58070776 496.92655993 -157.73828125 495.26171875 C-159.98731953 494.93204345 -162.23644118 494.60293641 -164.48564148 494.27436829 C-169.17729663 493.58682775 -173.8679053 492.89263758 -178.55786133 492.19360352 C-184.55562255 491.30016586 -190.55565779 490.42321506 -196.55656147 489.55116558 C-201.19272484 488.8756336 -205.82759382 488.19154031 -210.46211815 487.50486183 C-212.67403214 487.1781472 -214.88633234 486.85403587 -217.09902382 486.53262901 C-220.19147946 486.08209051 -223.28200959 485.62006146 -226.37231445 485.1550293 C-227.72919876 484.96081642 -227.72919876 484.96081642 -229.11349487 484.76268005 C-236.33477657 483.65598267 -243.57150684 482.40513386 -248.375 476.4375 C-248.94089844 475.756875 -249.50679687 475.07625 -250.08984375 474.375 C-255.94907391 465.95129519 -252.08658978 451.06222272 -250.63783264 441.59164429 C-250.44126894 440.25714094 -250.24559821 438.92250582 -250.05072969 437.58775389 C-249.5184911 433.95991218 -248.97378086 430.33404238 -248.42682493 426.70839453 C-247.83642107 422.77944529 -247.25787859 418.84874692 -246.67782593 414.91825867 C-245.67118789 408.10828752 -244.65714651 401.2994525 -243.63798714 394.49134445 C-242.15471916 384.58287093 -240.68279129 374.67273796 -239.21343928 364.76219244 C-236.81588264 348.59319908 -234.40920927 332.42557647 -231.99682617 316.25878906 C-229.67682993 300.71101139 -227.36116522 285.16259916 -225.05151367 269.61328125 C-224.91023952 268.66218803 -224.76896536 267.71109482 -224.62341017 266.73118059 C-224.05486348 262.9034467 -223.48635258 259.0757075 -222.91788793 255.24796142 C-219.25916751 230.61208584 -215.59730913 205.97667662 -211.92799377 181.34237671 C-211.80297998 180.50292274 -211.67796619 179.66346878 -211.54916409 178.79857682 C-210.21124247 169.81498585 -208.87116487 160.83172597 -207.52537632 151.84930992 C-207.05957773 148.73897979 -206.5939561 145.62862321 -206.12844849 142.51824951 C-206.01511208 141.76119296 -205.90177566 141.00413641 -205.78500482 140.22413875 C-204.32612268 130.47284017 -202.89307734 120.71817394 -201.48757344 110.95903957 C-200.77425087 106.00640212 -200.05279761 101.05495969 -199.32927735 96.10380269 C-198.85253138 92.83674321 -198.38215943 89.56896012 -197.92068493 86.29970431 C-197.42187331 82.76705661 -196.90726111 79.23704379 -196.3891449 75.70718384 C-196.24979818 74.68847521 -196.11045146 73.66976658 -195.96688211 72.620188 C-194.89868009 65.49969315 -193.29701255 58.54932248 -188.3125 53.125 C-179.02733547 47.67501213 -168.19097698 45.06623081 -157.9609375 41.9140625 C-156.22002909 41.37429384 -154.47922771 40.83417986 -152.73852539 40.29374695 C-147.09828377 38.54426212 -141.45546158 36.80318741 -135.8125 35.0625 C-133.86987295 34.46274321 -131.92726642 33.86291995 -129.98468018 33.26303101 C-122.04577852 30.81165312 -114.10675728 28.36067084 -106.16635132 25.91416931 C-94.85196516 22.42685044 -83.54625966 18.91338512 -72.24984741 15.36828613 C-66.44641026 13.5474767 -60.63904492 11.73937171 -54.83031654 9.93552017 C-50.95945778 8.73277883 -47.09080189 7.52381374 -43.22674561 6.29937744 C-39.62280458 5.15754424 -36.01385399 4.03321648 -32.40045166 2.92170143 C-30.48506948 2.32764996 -28.57537395 1.71535551 -26.66601562 1.10221863 C-18.092703 -1.50986047 -8.49037317 -3.85926053 0 0 Z " fill="#15708A" transform="translate(312.4375,1.5625)"/>
<path d="M0 0 C5.36800059 -0.08359511 10.47522946 0.18323014 15.8125 0.875 C16.51117188 0.96523438 17.20984375 1.05546875 17.9296875 1.1484375 C22.68608988 1.77912069 27.38430134 2.59215447 32.09375 3.5 C35.71518422 4.12304245 39.35233605 4.5652691 43 5 C48.41060785 5.64483967 53.74374083 6.46867293 59.09375 7.5 C62.71518422 8.12304245 66.35233605 8.5652691 70 9 C75.41060785 9.64483967 80.74374083 10.46867293 86.09375 11.5 C89.71518422 12.12304245 93.35233605 12.5652691 97 13 C102.40680933 13.64438696 107.73653013 14.46486514 113.08203125 15.5 C116.76897776 16.13176594 120.47351536 16.56471419 124.1875 17 C129.59043464 17.63616014 134.7717534 18.47509474 140 20 C139.25357609 32.28748992 137.97579587 44.50993266 136.6875 56.75 C136.57739594 57.80403015 136.46729187 58.8580603 136.35385132 59.94403076 C134.80318019 74.78162167 133.17376047 89.60709833 131.34448242 104.41308594 C130.6950736 109.73661739 130.05871401 115.04463932 129.65161133 120.39208984 C128.26091108 138.31783038 125.53694388 156.05338698 122.88696289 173.82714844 C122.19308205 178.48312693 121.51307718 183.14101817 120.83658695 187.79955101 C120.30832441 191.42426983 119.77181803 195.04773276 119.23293877 198.67088699 C118.97862516 200.38875371 118.72705851 202.10702961 118.47841072 203.82572556 C118.13093432 206.22029817 117.77208048 208.6129082 117.41040039 211.00537109 C117.31211945 211.69945572 117.2138385 212.39354034 117.11257935 213.10865784 C116.06543609 219.87848519 114.52629368 226.48925224 109 230.9375 C108.319375 231.50339844 107.63875 232.06929687 106.9375 232.65234375 C96.86917567 239.65551289 76.85679224 233.48905993 65.69921875 231.82421875 C63.45018047 231.49454345 61.20105882 231.16543641 58.95185852 230.83686829 C54.26020337 230.14932775 49.5695947 229.45513758 44.87963867 228.75610352 C38.88187745 227.86266586 32.88184221 226.98571506 26.88093853 226.11366558 C22.24477516 225.4381336 17.60990618 224.75404031 12.97538185 224.06736183 C10.76346786 223.7406472 8.55116766 223.41653587 6.33847618 223.09512901 C3.24602054 222.64459051 0.15549041 222.18256146 -2.93481445 221.7175293 C-3.83940399 221.58805405 -4.74399353 221.4585788 -5.67599487 221.32518005 C-12.89727657 220.21848267 -20.13400684 218.96763386 -24.9375 213 C-25.50339844 212.319375 -26.06929687 211.63875 -26.65234375 210.9375 C-33.16596399 201.57299091 -28.05557715 183.69357643 -26.44555664 173.10864258 C-26.1704573 171.24952736 -25.89624654 169.39028048 -25.62284851 167.53091431 C-24.88404533 162.52410553 -24.13275144 157.5192458 -23.37891698 152.5146811 C-22.59028899 147.26544123 -21.81285155 142.01454363 -21.03404236 136.76383972 C-19.72679141 127.9612531 -18.41203578 119.15981509 -17.09204102 110.35913086 C-15.39689122 99.05700413 -13.7136801 87.75313371 -12.03437138 76.44864368 C-10.58929125 66.72112979 -9.1394138 56.99433196 -7.68842387 47.26769805 C-7.22232178 44.14228846 -6.7567581 41.01679896 -6.2912159 37.89130592 C-5.56101939 32.99148441 -4.82785264 28.09211598 -4.0923481 23.19308853 C-3.82253772 21.39324994 -3.55364294 19.59327383 -3.28571701 17.79315376 C-2.92074942 15.34229153 -2.55245104 12.89195313 -2.1832428 10.44172668 C-2.07720909 9.72462566 -1.97117538 9.00752463 -1.86192852 8.26869327 C-1.42579036 5.39531421 -0.921582 2.76474599 0 0 Z " fill="#87FEEC" transform="translate(89,265)"/>
<path d="M0 0 C17.15861711 2.44129807 34.31268157 4.91412761 51.46585464 7.39334106 C55.72696924 8.0092104 59.98815293 8.6245919 64.24951172 9.23876953 C65.09180171 9.36021898 65.9340917 9.48166843 66.80190563 9.60679817 C68.48644315 9.84963375 70.17100879 10.0922744 71.85560322 10.33471489 C75.92694053 10.92154129 79.99723741 11.51430924 84.0657196 12.12063599 C85.601967 12.34903746 87.13824652 12.57722291 88.67456055 12.80517578 C89.40636127 12.91375978 90.13816198 13.02234379 90.89213848 13.13421822 C95.03341781 13.73983372 99.17133873 14.25936747 103.33520508 14.69091797 C116.15322348 16.09248166 116.15322348 16.09248166 120.49609375 21.0703125 C122.03759766 23.51049805 122.03759766 23.51049805 123.4375 26.125 C124.55740347 27.94734659 125.67851782 29.76894955 126.80078125 31.58984375 C127.33396973 32.50233887 127.8671582 33.41483398 128.41650391 34.35498047 C130.77230082 38.29002576 133.43666099 41.97555282 136.125 45.6875 C137.10849616 47.0756021 138.09027561 48.46492215 139.0703125 49.85546875 C139.55274414 50.53786621 140.03517578 51.22026367 140.53222656 51.92333984 C143.02320986 55.44767516 145.51144903 58.97394701 148 62.5 C148.99998722 63.91667568 149.99998722 65.33334236 151 66.75 C161 80.91666667 171 95.08333333 181 109.25 C181.49483887 109.9510083 181.98967773 110.6520166 182.49951172 111.37426758 C183.50119043 112.79333958 184.5028179 114.21244775 185.50439453 115.6315918 C187.97829495 119.13675274 190.45303366 122.64131515 192.9296875 126.14453125 C200.0861323 136.27005081 207.21473161 146.41493875 214.30712891 156.58544922 C215.50988429 158.30094543 216.72143035 160.01029317 217.93896484 161.71533203 C218.57141113 162.60462402 219.20385742 163.49391602 219.85546875 164.41015625 C220.43321045 165.21718994 221.01095215 166.02422363 221.60620117 166.85571289 C224.84991471 171.8459977 224.52123207 177.25854976 224 183 C222.13127801 191.03550455 215.27081622 195.32663725 209 200 C207.77311395 200.92665511 206.54656526 201.85375701 205.3203125 202.78125 C202.65075986 204.79412482 199.9722652 206.79443003 197.2890625 208.7890625 C194.28400656 211.02858775 191.30325834 213.29665008 188.3359375 215.5859375 C187.56975098 216.17665039 186.80356445 216.76736328 186.01416016 217.37597656 C184.53518329 218.51845988 183.05820217 219.66353272 181.58349609 220.81152344 C180.91141113 221.33004883 180.23932617 221.84857422 179.546875 222.3828125 C178.95745117 222.84059082 178.36802734 223.29836914 177.76074219 223.77001953 C173.78801221 226.54520168 170.73691415 227.35941453 165.875 227.5 C164.82054687 227.5515625 163.76609375 227.603125 162.6796875 227.65625 C153.66941722 226.04932282 145.78314705 218.87384083 138.4375 213.6875 C130.0225737 207.78883888 121.5676953 201.95527957 113.0625 196.1875 C104.30612522 190.24710791 95.56639004 184.28442432 86.85498047 178.27832031 C83.57201353 176.01593351 80.28577757 173.75830186 77 171.5 C75.66665244 170.58335403 74.33331907 169.66668741 73 168.75 C72.34 168.29625 71.68 167.8425 71 167.375 C65 163.25 65 163.25 63.00073242 161.87548828 C61.66497667 160.95716639 60.32920188 160.0388722 58.9934082 159.12060547 C55.69698255 156.85448843 52.40086973 154.58791941 49.10546875 152.3203125 C41.91048858 147.37016614 34.70894025 142.42979769 27.5 137.5 C22.89652388 134.35174441 18.29345333 131.20291993 13.6953125 128.046875 C13.0146875 127.58055664 12.3340625 127.11423828 11.6328125 126.63378906 C10.3078292 125.72060748 8.98738489 124.80080015 7.671875 123.87402344 C4.02416405 121.31504254 0.36816113 119.01011094 -3.59033203 116.95898438 C-10.63842956 112.49693132 -10.63842956 112.49693132 -11.65356445 108.29418945 C-11.619646 107.22386475 -11.58572754 106.15354004 -11.55078125 105.05078125 C-11.53183304 104.42107925 -11.51288483 103.79137726 -11.49336243 103.14259338 C-10.97869015 91.53747777 -9.32760779 79.96524609 -7.92993164 68.44140625 C-7.2165084 62.54434888 -6.52145748 56.64508165 -5.82421875 50.74609375 C-5.67113251 49.45883392 -5.51804626 48.1715741 -5.36032104 46.8453064 C-4.09319703 36.07848969 -2.99285033 25.29941773 -1.96696472 14.50718689 C-1.85387466 13.33184891 -1.74078461 12.15651093 -1.62426758 10.94555664 C-1.5272908 9.91499649 -1.43031403 8.88443634 -1.33039856 7.82264709 C-1.02018594 5.17245169 -0.56455893 2.60662114 0 0 Z " fill="#104B5C" transform="translate(229,285)"/>
<path d="M0 0 C6.46087246 6.14570795 10.78433829 12.82266938 15.19424438 20.53005981 C16.65566866 23.08390877 18.13334299 25.62823519 19.60984802 28.17338562 C20.39122567 29.52066443 21.17178277 30.86841945 21.95155334 32.21662903 C26.36689453 39.84618983 30.86847575 47.42406391 35.375 55 C36.19167459 56.3742532 37.00832513 57.74852069 37.82495117 59.12280273 C42.50525573 66.995934 47.20492533 74.85716163 51.92700195 82.70532227 C56.67037642 90.59732304 61.36505938 98.51811299 66.0625 106.4375 C71.41985251 115.46898543 76.78284299 124.49670424 82.1875 133.5 C82.65373779 134.27988281 83.11997559 135.05976563 83.6003418 135.86328125 C85.80557177 139.54593991 88.03733034 143.20725001 90.32421875 146.83984375 C90.75589355 147.53392334 91.18756836 148.22800293 91.63232422 148.94311523 C92.43203474 150.22657992 93.24153418 151.50402354 94.06298828 152.77368164 C96.59137469 156.85424577 96.59137469 156.85424577 96.46582031 159.39038086 C95.15644726 162.3577033 93.25008907 163.38189214 90.55859375 165.16015625 C89.51590332 165.85786133 88.47321289 166.55556641 87.39892578 167.27441406 C86.26603218 168.01640074 85.13305513 168.75826001 84 169.5 C82.84538852 170.26800004 81.69158313 171.03721328 80.53857422 171.80761719 C78.25361323 173.33305879 75.9654219 174.85343293 73.67431641 176.36962891 C69.81578297 178.93371005 65.9959177 181.54982736 62.1875 184.1875 C60.94035819 185.0472436 59.69296136 185.90661738 58.4453125 186.765625 C57.51187012 187.40854492 57.51187012 187.40854492 56.55957031 188.06445312 C52.73210936 190.69594951 48.89681167 193.3160007 45.0625 195.9375 C36.55252714 201.75636648 28.05460244 207.59259087 19.5625 213.4375 C9.90066625 205.19581449 0.55840618 196.61576623 -8.75976562 187.99023438 C-11.50467492 185.4498352 -14.25211219 182.91217663 -17 180.375 C-17.53858643 179.87766357 -18.07717285 179.38032715 -18.63208008 178.86791992 C-22.71869476 175.09627539 -26.8166198 171.33712865 -30.91821289 167.58178711 C-34.59977586 164.20948751 -38.27042978 160.82554809 -41.9375 157.4375 C-43.56251034 155.93717201 -45.18768788 154.43702549 -46.81298828 152.93701172 C-47.90275622 151.93109728 -48.99227144 150.92490899 -50.08154297 149.91845703 C-51.67801357 148.44416774 -53.27629002 146.9718602 -54.875 145.5 C-56.26525391 144.21802734 -56.26525391 144.21802734 -57.68359375 142.91015625 C-60.1725265 140.55327126 -60.1725265 140.55327126 -62.11767578 139.32763672 C-63.78515625 138.18359375 -63.78515625 138.18359375 -66.4375 135.4375 C-66.87137286 128.33598965 -66.03154211 121.34331146 -65.265625 114.28515625 C-65.08199402 112.54349434 -65.08199402 112.54349434 -64.89465332 110.76664734 C-64.49710133 107.01056624 -64.09251777 103.25528277 -63.6875 99.5 C-63.41157758 96.90985269 -63.13586235 94.31968331 -62.86035156 91.72949219 C-61.23711591 76.53450153 -59.53869144 61.35042416 -57.70288086 46.1796875 C-56.67058487 37.60793417 -55.76141425 29.03377077 -55.03222656 20.43066406 C-54.75644914 17.25989639 -54.44833913 14.4700174 -53.4375 11.4375 C-54.0975 11.1075 -54.7575 10.7775 -55.4375 10.4375 C-50.12887012 8.70419527 -44.81288796 6.99644836 -39.48901367 5.31054688 C-37.68412015 4.73524611 -35.88130869 4.15336572 -34.08081055 3.56445312 C-9.68545983 -4.40248174 -9.68545983 -4.40248174 0 0 Z " fill="#87FDEC" transform="translate(312.4375,1.5625)"/>
<path d="M0 0 C3.34252964 3.4968513 3.47713047 6.68789547 3.39453125 11.3046875 C3.38686234 12.07352264 3.37919342 12.84235779 3.37129211 13.63449097 C3.09150234 25.46614808 1.56173257 37.23739168 0.17407227 48.98046875 C-0.23668685 52.4572366 -0.62871411 55.93582949 -1.01554585 59.41533089 C-1.39228996 62.78066441 -1.78472926 66.14411127 -2.17578125 69.5078125 C-2.31341385 70.74435577 -2.45104645 71.98089905 -2.59284973 73.25491333 C-4.31274672 87.54527852 -8.78853632 94.6161276 -19.9140625 103.51953125 C-23.11146965 106.08959902 -26.24959426 108.71845215 -29.375 111.375 C-29.91688965 111.83463135 -30.4587793 112.2942627 -31.01708984 112.76782227 C-32.67876464 114.17772072 -34.33952264 115.58869157 -36 117 C-43.93711052 123.7460787 -51.90224275 130.44652659 -60 137 C-60.70608398 137.71293716 -61.41216797 138.42587433 -62.13964844 139.16041565 C-65.98883603 141.63595234 -68.89086581 141.09379821 -73.203125 140.40600586 C-73.99495178 140.29832099 -74.78677856 140.19063612 -75.6026001 140.07968807 C-78.07169433 139.7397447 -80.53526982 139.37009136 -83 139 C-84.47162877 138.79698578 -85.94362589 138.59661997 -87.41601562 138.39920044 C-91.86515942 137.79744945 -96.30752172 137.15277842 -100.75 136.50390625 C-102.38506163 136.26712502 -104.02015351 136.03055257 -105.65527344 135.79417419 C-109.05040394 135.30271668 -112.44523574 134.80926229 -115.83984375 134.31420898 C-120.13499436 133.68791761 -124.43075878 133.06596195 -128.72674561 132.44543552 C-132.09380618 131.95871369 -135.46057952 131.47002793 -138.82727051 130.98075676 C-140.4088214 130.75106975 -141.99044274 130.52186709 -143.57214355 130.2932148 C-148.71782832 129.54847134 -153.85994913 128.7826446 -159 128 C-159.82040771 127.87663647 -160.64081543 127.75327293 -161.48608398 127.62617111 C-163.98703208 127.2468231 -166.48581493 126.85543332 -168.984375 126.46069336 C-169.75767151 126.34453706 -170.53096802 126.22838076 -171.32769775 126.10870457 C-176.7707426 125.2292574 -176.7707426 125.2292574 -179 123 C-178.13761719 122.42894531 -177.27523437 121.85789062 -176.38671875 121.26953125 C-162.50451274 112.05660127 -148.7841761 102.60856841 -135.05883789 93.16430664 C-129.87856566 89.60073758 -124.69023097 86.04904504 -119.5 82.5 C-112.29727807 77.57452936 -105.10150462 72.63914576 -97.9140625 67.69140625 C-95.22451599 65.84039727 -92.53140096 63.99472504 -89.8359375 62.15234375 C-89.14137451 61.67684082 -88.44681152 61.20133789 -87.73120117 60.71142578 C-86.43535768 59.8244131 -85.13873816 58.93853219 -83.84106445 58.05419922 C-80.10611673 55.49511452 -76.43348202 52.86348689 -72.78125 50.1875 C-66.88311127 45.88279574 -60.86316759 41.77388473 -54.8125 37.6875 C-52.59711519 36.18699581 -50.38259936 34.68521077 -48.16796875 33.18359375 C-46.5754126 32.10440674 -46.5754126 32.10440674 -44.95068359 31.00341797 C-40.54578476 28.01263526 -36.15875913 24.99634784 -31.77490234 21.97485352 C-28.20510887 19.5150471 -24.63066845 17.06228954 -21.05078125 14.6171875 C-20.20112793 14.03678711 -19.35147461 13.45638672 -18.47607422 12.85839844 C-16.83619124 11.7386476 -15.19591906 10.61946645 -13.55517578 9.50097656 C-8.99655556 6.38762951 -4.48041987 3.22495029 0 0 Z " fill="#15708A" transform="translate(409,161)"/>
<path d="M0 0 C0.29558807 0.62570892 0.59117615 1.25141785 0.89572144 1.89608765 C2.16667254 4.31755069 3.53280793 5.55028168 5.6328125 7.2890625 C9.84498104 10.8552512 13.86656996 14.58273728 17.875 18.375 C22.98775667 23.19139906 28.13708222 27.95281028 33.37890625 32.62890625 C36.78917614 35.7139045 40.14388483 38.85631294 43.5 42 C47.63361255 45.87171308 51.77600046 49.72656041 56 53.5 C60.88458302 57.86356083 65.65976196 62.33957817 70.43969727 66.81689453 C75.56685418 71.61273804 80.75397661 76.33412508 86 81 C84.64021466 85.07935602 81.91051922 86.29663546 78.4375 88.5 C77.05524634 89.39859734 75.67375991 90.29837575 74.29296875 91.19921875 C73.22248291 91.894104 73.22248291 91.894104 72.13037109 92.60302734 C68.80030101 94.78669237 65.52480848 97.04713217 62.25 99.3125 C60.91157534 100.23584672 59.573031 101.15901997 58.234375 102.08203125 C57.54923828 102.55463379 56.86410156 103.02723633 56.15820312 103.51416016 C52.2783997 106.18525559 48.38870236 108.84188478 44.5 111.5 C38.66131985 115.49226494 32.82690461 119.49056784 27 123.5 C2.20235171 140.55521246 2.20235171 140.55521246 -8.625 147.8125 C-9.25865479 148.23926025 -9.89230957 148.66602051 -10.54516602 149.10571289 C-14.88204305 152 -14.88204305 152 -16 152 C-15.41373434 142.20513102 -14.59581171 132.4747456 -13.50952148 122.72094727 C-13.36131928 121.36902814 -13.21339924 120.01707807 -13.06573486 118.6651001 C-12.66988588 115.04801856 -12.27016675 111.4313747 -11.86966968 107.81480527 C-11.44962572 104.01545739 -11.0332556 100.21570684 -10.61647034 96.41600037 C-9.82928342 89.24448366 -9.03886565 82.07332703 -8.24724203 74.90229887 C-7.345057 66.72826235 -6.44654214 58.55382365 -5.54831207 50.37935174 C-3.70291412 33.58578858 -1.85298344 16.79272784 0 0 Z " fill="#14B7B3" transform="translate(245,133)"/>
<path d="M0 0 C0.66 0.33 1.32 0.66 2 1 C-0.64 3.64 -3.28 6.28 -6 9 C-6 5.06368636 -4.57142871 3.87394974 -2 1 C-1.34 0.67 -0.68 0.34 0 0 Z " fill="#3091A1" transform="translate(127,53)"/>
</svg>
