<?xml version="1.0" encoding="utf-8"?><svg version="1.1" id="Layer_1" xmlns="http://www.w3.org/2000/svg" xmlns:xlink="http://www.w3.org/1999/xlink" x="0px" y="0px" viewBox="0 0 113.139 122.88" enable-background="new 0 0 113.139 122.88" xml:space="preserve"><g><path fill="#E7242D" d="M45.601,74.095l5.872,11.557l-23.936,5.96l-4.238-12.425L45.601,74.095L45.601,74.095z M59.936,38.182 l15.978,19.931l-25.899,5.512l-6.188-10.653l-23.852,4.647L15.653,46.01L59.936,38.182L59.936,38.182z M72.678,7.462l31.041,24.394 l-27.584,4.96L59.302,19.294l-46.877,6.829L8.149,15.886L72.678,7.462L72.678,7.462z M74.681,0L0,9.73v0.563l10.786,64.482 l15.331,48.104l78.783-22.431l8.238-70.272L74.681,0L74.681,0z"/></g></svg>